# AST/ASF file generated using VICON BodyLanguage
# -----------------------------------------------
:version 1.10
:name VICON
:units
  mass 1.0
  length 0.45
  angle deg
:documentation
   .ast/.asf automatically generated from VICON data using
   VICON BodyBuilder and BodyLanguage model FoxedUp or BRILLIANT.MOD
:root
   order TX TY TZ RX RY RZ
   axis XYZ
   position 0 0 0  
   orientation 0 0 0 
:bonedata
  begin
     id 1 
     name lhipjoint
     direction 0.707368 -0.647095 0.284426 
     length 2.60678 
     axis 0 0 0  XYZ
  end
  begin
     id 2 
     name lfemur
     direction 0.34202 -0.939693 0  
     length 6.63812  
     axis 0 0 20  XYZ
    dof rx ry rz
    limits (-160.0 20.0)
           (-70.0 70.0)
           (-60.0 70.0)
  end
  begin
     id 3 
     name ltibia
     direction 0.34202 -0.939693 0   
     length 7.51178   
     axis 0 0 20   XYZ
    dof rx
    limits (-10.0 170.0)
  end
  begin
     id 4 
     name lfoot
     direction 0.121251 -0.333133 0.935051   
     length 1.83716   
     axis -90 7.62852e-016 20   XYZ
    dof rx rz
    limits (-45.0 90.0)
           (-70.0 20.0)
  end
  begin
     id 5 
     name ltoes
     direction 1.53611e-011 -4.21962e-011 1   
     length 0.916133   
     axis -90 7.62852e-016 20   XYZ
    dof rx
    limits (-90.0 20.0)
  end
  begin
     id 6 
     name rhipjoint
     direction -0.692419 -0.660507 0.290321   
     length 2.55385  
     axis 0 0 0  XYZ 
  end
  begin
     id 7 
     name rfemur
     direction -0.34202 -0.939693 0   
     length 7.29079   
     axis 0 0 -20   XYZ
    dof rx ry rz
    limits (-160.0 20.0)
           (-70.0 70.0)
           (-70.0 60.0)
  end
  begin
     id 8 
     name rtibia
     direction -0.34202 -0.939693 0   
     length 7.47143   
     axis 0 0 -20   XYZ
    dof rx
    limits (-10.0 170.0)
 end
 begin
     id 9 
     name rfoot
     direction -0.119907 -0.329441 0.936532   
     length 1.79439  
     axis -90 -7.62852e-016 -20   XYZ
    dof rx rz
    limits (-45.0 90.0)
           (-20.0 70.0)
  end
  begin
     id 10 
     name rtoes
     direction -1.53571e-011 -4.21961e-011 1   
     length 0.896039   
     axis -90 -7.62852e-016 -20   XYZ
    dof rx
    limits (-90.0 20.0)
  end
  begin
     id 11 
     name lowerback
     direction 0.0367721 0.992912 -0.113016   
     length 1.73542   
     axis 0 0 0   XYZ
    dof rx ry rz
    limits (-20.0 45.0)
           (-30.0 30.0)
           (-30.0 30.0)
  end
  begin
     id 12 
     name upperback
     direction -0.000314626 0.990678 0.136227   
     length 1.7514   
     axis 0 0 0   XYZ
    dof rx ry rz
    limits (-20.0 45.0)
           (-30.0 30.0)
           (-30.0 30.0)
  end
  begin
     id 13 
     name thorax
     direction -0.0226159 0.981151 0.191917   
     length 1.71471   
     axis 0 0 0   XYZ
    dof rx ry rz
    limits (-20.0 45.0)
           (-30.0 30.0)
           (-30.0 30.0)
  end
  begin
     id 14 
     name lowerneck
     direction 0.0219333 0.998071 0.0580739   
     length 1.65882   
     axis 0 0 0   XYZ
    dof rx ry rz
    limits (-20.0 45.0)
           (-30.0 30.0)
           (-30.0 30.0)
  end
  begin
     id 15 
     name upperneck
     direction 0.0384529 0.980058 -0.194957   
     length 1.6612   
     axis 0 0 0   XYZ
    dof rx ry rz
    limits (-20.0 45.0)
           (-30.0 30.0)
           (-30.0 30.0)
  end
  begin
     id 16
     name head
     direction 0.00592123 0.997421 -0.0715234  
     length 1.68077  
     axis 0 0 0   XYZ
    dof rx ry rz
    limits (-20.0 45.0)
           (-30.0 30.0)
           (-30.0 30.0)
  end
  begin
     id 17 
     name lclavicle
     direction 0.904803 0.417826 0.0821728  
     length 3.42227  
     axis 0 0 0   XYZ
    dof ry rz
    limits (-20.0 10.0)
           (0.0 20.0)
  end
  begin
     id 18 
     name lhumerus
     direction 1 -4.48965e-011 -2.68786e-027   
     length 5.11878   
     axis -180 -30 -90   XYZ
    dof rx ry rz
    limits (-60.0 90.0)
           (-90.0 90.0)
           (-90.0 90.0)
  end
  begin
     id 19
     name lradius
     direction 1 -4.48965e-011 2.61168e-028   
     length 3.59971   
     axis -180 -30 -90   XYZ
    dof rx
    limits (-10.0 170.0)
  end
  begin
     id 20
     name lwrist
     direction 1 -4.48965e-011 1.58672e-027   
     length 1.79985   
     axis -1.65735e-015 90 90   XYZ
    dof ry
    limits (-180.0 0.0)
 end
  begin
     id 21 
     name lhand
     direction 1 -4.48942e-011 3.17344e-027   
     length 0.62877   
     axis -2.02492e-015 90 90   XYZ
    dof rx rz
    limits (-90.0 90.0)
           (-45.0 45.0)
  end
  begin
     id 22 
     name lfingers
     direction 1 -4.49011e-011 6.34687e-027   
     length 0.506931   
     axis -4.04985e-015 90 90   XYZ
    dof rx
    limits (0.0 90.0)
  end
  begin
     id 23
     name lthumb
     direction 0.707107 -6.34982e-011 0.707107   
     length 0.727854   
     axis -90 45 2.85299e-015   XYZ
    dof rx rz
    limits (-45.0 45.0)
           (-45.0 45.0)
  end
  begin
     id 24 
     name rclavicle
     direction -0.945647 0.32488 0.0143075   
     length 3.52737  
     axis 0 0 0   XYZ 
    dof ry rz
    limits (-10.0 20.0)
           (-20.0 0.0)
  end
  begin
     id 25 
     name rhumerus
     direction -1 -4.48962e-011 1.92182e-027  
     length 5.4902   
     axis -180 30 90   XYZ
    dof rx ry rz
    limits (-90.0 60.0)
           (-90.0 90.0)
           (-90.0 90.0)
  end
  begin
     id 26 
     name rradius
     direction -1 -4.48967e-011 -5.97193e-028   
     length 3.20659   
     axis -180 30 90   XYZ
    dof rx
    limits (-10.0 170.0)
  end
  begin
     id 27 
     name rwrist
     direction -1 -4.48964e-011 1.58672e-027   
     length 1.6033   
     axis -1.65735e-015 -90 -90   XYZ
    dof ry
    limits (-180.0 0.0)
  end
  begin
     id 28
     name rhand
     direction -1 -4.49006e-011 3.17344e-027   
     length 0.691885   
     axis -2.02492e-015 -90 -90   XYZ
    dof rx rz
    limits (-90.0 90.0)
           (-45.0 45.0)
  end
  begin
     id 29
     name rfingers
     direction -1 -4.48908e-011 6.34687e-027   
     length 0.557815   
     axis -4.04985e-015 -90 -90   XYZ
    dof rx
    limits (0.0 90.0)
  end
  begin
     id 30
     name rthumb
     direction -0.707107 -6.34999e-011 0.707107   
     length 0.800915   
     axis -90 -45 -2.85299e-015   XYZ
    dof rx rz
    limits (-45.0 45.0)
           (-45.0 45.0)
  end
:hierarchy
  begin
    root lhipjoint rhipjoint lowerback
    lhipjoint lfemur
    lfemur ltibia
    ltibia lfoot
    lfoot ltoes
    rhipjoint rfemur
    rfemur rtibia
    rtibia rfoot
    rfoot rtoes
    lowerback upperback
    upperback thorax
    thorax lowerneck lclavicle rclavicle
    lowerneck upperneck
    upperneck head
    lclavicle lhumerus
    lhumerus lradius
    lradius lwrist
    lwrist lhand lthumb
    lhand lfingers
    rclavicle rhumerus
    rhumerus rradius
    rradius rwrist
    rwrist rhand rthumb
    rhand rfingers
  end

#!OML:ASF I:\Actors\actors\Patient Classification 1\Patient 1\Session 1\Subject1.ASF
:FULLY-SPECIFIED
:DEGREES
72
root 0.284608 17.4566 8.11192 10.6121 -4.96044 -7.94505
lowerback -0.301121 -0.013696 3.13413
upperback -10.0601 0.325663 2.28189
thorax -10.5226 -0.00157544 0.66517
lowerneck -1.89181 -12.0247 -11.0066
upperneck 13.4182 -17.4961 12.0591
head 6.41543 -8.46486 4.23547
rclavicle -1.1778e-014 -1.51076e-014
rhumerus -48.5888 -18.6117 -72.0301
rradius 26.72
rwrist 42.1796
rhand 5.42594 -33.9602
rfingers 7.12502
rthumb 30.7762 -61.4041
lclavicle -1.1778e-014 -1.51076e-014
lhumerus -46.4612 16.7929 78.071
lradius 21.6859
lwrist -31.3431
lhand -16.8369 -12.097
lfingers 7.12502
lthumb 9.39267 17.6738
rfemur -8.33378 26.6899 19.5473
rtibia 3.68998
rfoot -10.9489 -19.9227
rtoes -3.84009
lfemur 2.40359 -42.2452 -11.8943
ltibia -3.84444
lfoot -26.0764 54.6505
ltoes 18.5503
73
root 0.281333 17.4558 8.1189 10.6891 -5.0569 -7.93077
lowerback -0.602552 -0.0442581 3.00374
upperback -9.93481 0.261468 2.33169
thorax -10.1988 -0.0161137 0.792081
lowerneck -2.10225 -11.9869 -10.9116
upperneck 13.4221 -17.4309 12.061
head 6.43638 -8.41945 4.21633
rclavicle -3.47873e-015 7.95139e-016
rhumerus -48.3325 -18.6963 -72.0133
rradius 26.7017
rwrist 42.2375
rhand 5.39559 -33.9301
rfingers 7.12502
rthumb 30.7472 -61.3795
lclavicle -3.47873e-015 7.95139e-016
lhumerus -46.4753 17.2513 77.6798
lradius 21.5031
lwrist -31.8712
lhand -16.8556 -12.1581
lfingers 7.12502
lthumb 9.37463 17.6134
rfemur -8.36866 26.7182 19.5033
rtibia 3.62494
rfoot -10.8759 -19.8754
rtoes -3.98212
lfemur 2.45783 -42.4239 -11.9454
ltibia -3.89644
lfoot -26.4081 54.8936
ltoes 18.7356
74
root 0.279341 17.4549 8.12681 10.6972 -5.16939 -7.91893
lowerback -1.26087 -0.114408 2.75306
upperback -9.48463 0.119622 2.48746
thorax -9.29834 -0.0497133 1.09399
lowerneck -2.61281 -11.934 -10.9096
upperneck 13.3407 -17.319 12.1822
head 6.49578 -8.33674 4.23466
rclavicle 2.31584e-014 -4.67144e-014
rhumerus -47.425 -18.7317 -72.1561
rradius 26.5806
rwrist 42.2594
rhand 5.31773 -33.837
rfingers 7.12502
rthumb 30.673 -61.3003
lclavicle 2.31584e-014 -4.67144e-014
lhumerus -46.0417 18.1545 77.3689
lradius 21.272
lwrist -32.5354
lhand -16.9348 -12.1957
lfingers 7.12502
lthumb 9.29826 17.5792
rfemur -8.30429 26.834 19.4916
rtibia 3.53623
rfoot -10.8146 -19.8736
rtoes -4.03591
lfemur 2.64975 -42.7051 -12.1121
ltibia -3.92997
lfoot -26.8905 55.1705
ltoes 19.1749
75
root 0.278917 17.4534 8.13626 10.6882 -5.2954 -7.97915
lowerback -0.928269 -0.0212091 3.01462
upperback -9.75025 0.270819 2.34488
thorax -9.79463 -0.00831711 0.793609
lowerneck -2.46455 -11.942 -10.9016
upperneck 13.6505 -17.3874 12.1881
head 6.57641 -8.37031 4.23247
rclavicle 2.20154e-014 -3.85642e-014
rhumerus -48.0231 -18.7878 -71.998
rradius 26.7042
rwrist 42.0832
rhand 5.27798 -33.7849
rfingers 7.12502
rthumb 30.6351 -61.2553
lclavicle 2.20154e-014 -3.85642e-014
lhumerus -46.7092 18.0628 76.8167
lradius 21.1525
lwrist -32.8507
lhand -17.0092 -12.2864
lfingers 7.12502
lthumb 9.22643 17.4917
rfemur -8.20447 26.908 19.5771
rtibia 3.42414
rfoot -10.7264 -19.8317
rtoes -4.22888
lfemur 2.92919 -43.0358 -12.2673
ltibia -3.98212
lfoot -27.5856 55.4589
ltoes 19.8401
76
root 0.277428 17.4529 8.14296 10.7061 -5.38918 -8.04121
lowerback -1.38064 -0.0590682 2.9599
upperback -9.44605 0.192226 2.45516
thorax -9.18486 -0.0315501 0.937941
lowerneck -2.74976 -11.8948 -10.8821
upperneck 13.4354 -17.2834 12.2769
head 6.55112 -8.30524 4.25436
rclavicle 8.19987e-015 5.1684e-015
rhumerus -47.395 -18.758 -72.1391
rradius 26.6911
rwrist 41.9694
rhand 5.33432 -33.8337
rfingers 7.12502
rthumb 30.6888 -61.294
lclavicle 8.19987e-015 5.1684e-015
lhumerus -46.4839 18.9366 76.409
lradius 20.9314
lwrist -33.4827
lhand -17.0274 -12.236
lfingers 7.12502
lthumb 9.20891 17.5429
rfemur -8.16536 26.9683 19.6478
rtibia 3.3429
rfoot -10.6516 -19.7908
rtoes -4.40674
lfemur 3.09266 -43.2363 -12.3105
ltibia -4.04315
lfoot -28.182 55.6256
ltoes 20.4035
77
root 0.275562 17.453 8.14725 10.7306 -5.45225 -8.03255
lowerback -1.38517 -0.0681914 2.9509
upperback -9.46796 0.179081 2.4456
thorax -9.20663 -0.0381719 0.934114
lowerneck -2.76939 -11.8701 -10.8965
upperneck 13.4527 -17.2555 12.3156
head 6.56134 -8.28926 4.2704
rclavicle -4.52235e-015 5.96354e-015
rhumerus -47.3906 -18.7813 -72.0985
rradius 26.7293
rwrist 41.949
rhand 5.40114 -33.8475
rfingers 7.12502
rthumb 30.7525 -61.2959
lclavicle -4.52235e-015 5.96354e-015
lhumerus -46.7631 19.5031 75.8208
lradius 20.7834
lwrist -34.1104
lhand -17.0689 -12.24
lfingers 7.12502
lthumb 9.16887 17.5407
rfemur -8.16627 27.054 19.6182
rtibia 3.29983
rfoot -10.6779 -19.7901
rtoes -4.20328
lfemur 3.17108 -43.4453 -12.3811
ltibia -4.05769
lfoot -28.6771 55.7696
ltoes 20.7844
